<?xml version="1.0" standalone="no"?>
<!DOCTYPE svg PUBLIC "-//W3C//DTD SVG 20010904//EN"
 "http://www.w3.org/TR/2001/REC-SVG-20010904/DTD/svg10.dtd">
<svg version="1.0" xmlns="http://www.w3.org/2000/svg"
 width="640.000000pt" height="386.000000pt" viewBox="0 0 640.000000 386.000000"
 preserveAspectRatio="xMidYMid meet">

<g transform="translate(0.000000,386.000000) scale(0.100000,-0.100000)"
fill="#000000" stroke="none">
<path d="M3935 3853 c-142 -4 -404 -22 -598 -40 l-178 -16 -30 -38 c-92 -116
-103 -276 -32 -459 14 -36 29 -68 32 -72 3 -4 73 4 156 17 144 24 205 30 205
20 0 -2 -24 -42 -53 -87 -30 -46 -62 -98 -73 -116 -10 -18 -30 -36 -44 -39
-14 -3 -49 -16 -77 -29 l-53 -23 -67 39 c-287 165 -661 135 -934 -76 -145
-112 -269 -311 -302 -485 l-10 -58 -86 -37 c-233 -100 -381 -187 -662 -392
-16 -12 -22 -11 -48 7 -54 39 -176 91 -246 106 -155 33 -319 11 -465 -62 -55
-28 -98 -60 -161 -123 -72 -71 -94 -100 -133 -180 -73 -149 -92 -285 -60 -438
38 -186 148 -347 307 -447 127 -80 307 -122 447 -104 43 5 97 16 118 23 39 14
42 13 128 -29 163 -79 378 -143 604 -179 155 -25 147 -22 160 -63 56 -175 217
-345 396 -417 290 -117 618 -32 801 209 46 60 123 209 123 239 0 17 -6 16 215
46 398 56 860 170 1219 302 l110 40 20 -28 c39 -55 152 -167 211 -209 232
-165 559 -220 815 -136 289 94 497 304 596 601 27 81 28 94 28 265 0 176 0
182 -32 275 -52 155 -111 249 -232 370 -111 111 -218 182 -328 217 -48 15 -57
24 -98 85 -77 115 -172 181 -304 212 -34 8 -64 17 -67 20 -8 8 32 105 103 246
51 104 182 314 237 382 13 17 22 16 163 -12 82 -17 234 -51 338 -76 l189 -47
18 24 c70 92 111 245 92 346 -12 64 -46 159 -66 187 -15 21 -173 56 -501 111
-623 105 -1250 148 -1891 128z m-92 -582 c-59 -47 -135 -127 -192 -203 -24
-32 -47 -55 -52 -52 -10 6 49 95 145 216 59 75 62 77 104 78 l44 0 -49 -39z
m1284 8 c262 -29 244 -13 162 -144 -76 -122 -201 -366 -249 -490 -18 -44 -34
-82 -36 -84 -2 -3 -2 33 2 80 17 224 -56 465 -188 623 l-42 49 85 -7 c46 -4
166 -16 266 -27z m-1580 -376 c-3 -10 -21 -55 -39 -100 -27 -68 -37 -83 -55
-83 -22 0 -22 1 -6 38 26 63 84 162 95 162 6 0 8 -8 5 -17z m294 -40 c13 -16
12 -17 -3 -4 -17 13 -22 21 -14 21 2 0 10 -8 17 -17z m-160 -20 c13 -16 12
-17 -3 -4 -10 7 -18 15 -18 17 0 8 8 3 21 -13z m-675 -72 c-14 -27 -30 -70
-37 -97 -7 -27 -13 -50 -14 -52 -1 -1 -23 2 -48 8 -42 9 -132 3 -227 -15 -22
-4 -19 0 20 35 25 22 49 40 55 40 5 0 -6 -13 -25 -30 -27 -22 -31 -29 -17 -30
10 0 16 4 13 9 -3 5 5 16 19 25 14 9 24 21 22 27 -1 7 4 14 12 17 9 3 11 0 6
-8 -5 -9 -4 -11 4 -6 6 4 9 11 6 16 -8 14 182 105 228 109 4 1 -4 -21 -17 -48z
m162 -94 c-36 -86 -37 -88 -66 -81 -14 4 -22 14 -22 28 0 30 58 149 69 141 5
-3 13 0 17 6 4 8 3 9 -4 5 -13 -8 -17 6 -5 17 3 4 14 -4 23 -19 17 -25 16 -28
-12 -97z m407 53 c-16 -16 -32 -30 -37 -30 -8 0 53 59 61 60 3 0 -8 -13 -24
-30z m125 -53 c0 -2 -19 -21 -42 -42 l-43 -40 40 43 c36 39 45 47 45 39z m-73
-149 c-2 -13 -4 -3 -4 22 0 25 2 35 4 23 2 -13 2 -33 0 -45z m-1997 -943 c136
-35 277 -123 292 -181 29 -112 -223 -159 -467 -89 -111 33 -195 76 -240 127
-65 71 -36 128 82 158 55 14 257 4 333 -15z m4075 -79 c217 -128 128 -458
-124 -458 -67 0 -114 18 -164 61 -138 121 -94 350 81 416 57 22 151 13 207
-19z m-5000 -55 c-8 -16 -26 -67 -39 -113 l-24 -83 -7 47 c-8 55 6 106 42 148
32 38 48 39 28 1z m3800 -199 l6 -52 -48 -21 c-85 -36 -424 -147 -563 -183
-300 -78 -752 -155 -779 -133 -26 22 -63 120 -62 166 0 24 2 45 4 47 2 2 70
11 153 19 433 45 832 145 1192 299 l77 33 7 -61 c4 -34 10 -85 13 -114z
m-1852 -486 c48 -18 74 -41 98 -88 39 -77 17 -165 -54 -222 -34 -27 -47 -31
-101 -31 -76 0 -133 32 -161 92 -46 96 -5 204 95 247 43 19 74 19 123 2z"/>
<path d="M2955 2785 c-22 -11 -24 -13 -6 -9 13 3 30 7 37 8 7 1 17 5 20 9 12
12 -20 7 -51 -8z"/>
<path d="M2868 2749 c-21 -11 -38 -22 -38 -24 0 -5 79 32 89 41 12 11 -18 1
-51 -17z"/>
<path d="M2966 2735 c-9 -26 -7 -32 5 -12 6 10 9 21 6 23 -2 3 -7 -2 -11 -11z"/>
<path d="M2951 2684 c0 -11 3 -14 6 -6 3 7 2 16 -1 19 -3 4 -6 -2 -5 -13z"/>
<path d="M2843 2653 c9 -2 23 -2 30 0 6 3 -1 5 -18 5 -16 0 -22 -2 -12 -5z"/>
<path d="M2941 2644 c0 -11 3 -14 6 -6 3 7 2 16 -1 19 -3 4 -6 -2 -5 -13z"/>
<path d="M2763 2643 c9 -2 25 -2 35 0 9 3 1 5 -18 5 -19 0 -27 -2 -17 -5z"/>
<path d="M2898 2643 c6 -2 18 -2 25 0 6 3 1 5 -13 5 -14 0 -19 -2 -12 -5z"/>
<path d="M3171 2744 c0 -11 3 -14 6 -6 3 7 2 16 -1 19 -3 4 -6 -2 -5 -13z"/>
<path d="M3125 2719 c-9 -17 -15 -33 -13 -35 3 -2 12 12 21 31 21 43 13 47 -8
4z"/>
<path d="M3156 2705 c-9 -26 -7 -32 5 -12 6 10 9 21 6 23 -2 3 -7 -2 -11 -11z"/>
<path d="M3090 2625 c0 -8 4 -15 10 -15 5 0 7 7 4 15 -4 8 -8 15 -10 15 -2 0
-4 -7 -4 -15z"/>
</g>
</svg>
