<?xml version="1.0" standalone="no"?>
<!DOCTYPE svg PUBLIC "-//W3C//DTD SVG 20010904//EN"
 "http://www.w3.org/TR/2001/REC-SVG-20010904/DTD/svg10.dtd">
<svg version="1.0" xmlns="http://www.w3.org/2000/svg"
 width="500.000000pt" height="500.000000pt" viewBox="0 0 500.000000 500.000000"
 preserveAspectRatio="xMidYMid meet">

<g transform="translate(0.000000,500.000000) scale(0.100000,-0.100000)"
fill="#000000" stroke="none">
<path d="M2248 4138 c-3 -29 -7 -33 -35 -36 -28 -3 -32 -7 -35 -35 -3 -28 -7
-33 -38 -37 -31 -4 -35 -9 -38 -37 -3 -29 -7 -33 -33 -33 -26 0 -29 -3 -29
-34 0 -33 -2 -35 -37 -38 l-38 -3 -3 -101 -3 -102 -29 -6 c-30 -5 -30 -6 -30
-71 0 -61 -1 -65 -22 -65 -47 0 -50 -9 -49 -146 1 -70 3 -129 4 -130 1 -1 16
-4 32 -6 l30 -3 3 143 3 142 28 0 c32 0 41 18 41 83 0 34 2 37 29 37 37 0 41
11 41 130 l0 99 63 3 62 3 9 68 9 67 63 0 63 0 3 33 3 32 208 3 207 2 0 35 0
35 -239 0 -240 0 -3 -32z"/>
<path d="M2820 4135 l0 -35 64 0 65 0 3 -32 c3 -29 6 -33 33 -33 27 0 30 4 33
33 3 31 2 32 -32 32 -34 0 -36 2 -36 35 l0 35 -65 0 -65 0 0 -35z"/>
<path d="M3088 3998 l-3 -33 -140 -5 -140 -5 -3 -32 -3 -33 180 0 181 0 0
-105 0 -105 35 0 34 0 3 -107 3 -108 105 0 105 0 0 70 0 70 -35 0 c-32 0 -35
-3 -38 -33 -3 -31 -6 -33 -35 -30 -32 3 -32 3 -37 68 -5 65 -5 65 -37 68 l-32
3 -3 102 -3 102 -32 3 -33 3 0 70 0 69 -34 0 c-32 0 -35 -3 -38 -32z"/>
<path d="M2182 3553 c3 -113 4 -118 25 -121 35 -5 45 28 41 137 l-4 96 -33 3
-32 3 3 -118z"/>
<path d="M2390 3430 c0 -28 3 -30 35 -30 32 0 35 2 35 30 0 28 -3 30 -35 30
-32 0 -35 -2 -35 -30z"/>
<path d="M2110 3341 c0 -59 1 -61 25 -61 25 0 26 2 23 58 -3 50 -6 57 -25 60
-22 3 -23 0 -23 -57z"/>
<path d="M2665 3388 c-3 -7 -6 -55 -7 -107 l-3 -94 31 -9 c34 -9 44 -33 44
-109 0 -21 5 -50 11 -66 9 -25 12 -26 20 -10 13 23 36 22 49 -4 8 -14 19 -19
38 -17 26 3 27 6 30 71 l3 67 34 0 c34 0 35 1 35 41 l0 42 -88 -6 c-48 -3 -99
-3 -113 0 -24 4 -26 9 -28 69 l-2 64 38 1 c124 3 118 0 121 42 l3 37 -106 0
c-75 0 -107 -4 -110 -12z"/>
<path d="M3097 3393 c-4 -3 -7 -19 -7 -35 0 -20 -5 -28 -17 -29 -27 -2 -113
-6 -156 -8 -38 -1 -38 -1 -35 -38 l3 -38 65 0 65 0 0 -65 c0 -64 0 -65 -30
-70 -27 -5 -30 -9 -30 -40 0 -32 3 -35 33 -38 l32 -3 0 -165 c0 -155 -1 -164
-19 -164 -45 0 -51 -9 -51 -81 l0 -69 -34 0 -33 0 -6 -61 c-3 -33 -8 -63 -10
-66 -3 -3 -37 -7 -76 -8 -39 -2 -75 -7 -81 -10 -5 -3 -18 -2 -27 3 -10 5 -38
7 -63 3 -36 -5 -45 -10 -45 -26 0 -11 -7 -21 -16 -23 -12 -2 -18 7 -23 35 -3
21 -10 43 -14 50 -11 17 -50 5 -58 -19 -4 -15 -13 -18 -37 -16 -28 3 -32 7
-35 36 -3 29 -6 32 -37 32 -31 0 -34 3 -37 32 -2 25 -9 34 -28 38 -23 5 -26
12 -31 69 -6 61 -20 86 -45 77 -29 -11 -33 14 -36 209 l-3 199 -32 8 c-25 6
-32 14 -35 36 -2 22 -8 28 -35 30 -28 3 -32 7 -35 35 l-3 32 -67 3 -68 3 0
-141 0 -140 30 0 c27 0 30 -3 30 -30 0 -17 -6 -31 -12 -32 -7 0 -20 -1 -28 -2
-9 -1 -16 -13 -18 -33 -3 -29 -7 -33 -32 -33 -31 0 -47 -19 -46 -55 1 -16 8
-20 36 -20 32 0 35 3 38 33 l3 32 70 0 69 0 0 -131 0 -130 33 3 c24 2 33 8 35
26 3 17 10 22 33 22 51 0 51 -61 0 -68 -18 -3 -22 -9 -19 -35 3 -30 5 -32 53
-37 46 -5 50 -7 55 -35 5 -27 9 -30 47 -33 39 -3 42 -5 45 -35 l3 -32 67 -3
67 -3 3 -32 c3 -28 7 -32 36 -35 29 -3 32 -6 32 -38 l0 -35 68 3 67 3 3 32 c3
28 7 32 35 35 28 3 32 7 35 36 l3 32 70 0 69 0 0 35 c0 33 2 35 35 35 31 0 35
3 35 25 0 19 6 26 28 31 15 3 37 10 50 15 13 5 32 9 42 9 16 0 20 7 20 30 0
27 -3 30 -30 30 -28 0 -30 3 -30 35 0 32 2 35 29 35 25 0 30 -4 33 -27 3 -24
8 -28 33 -28 l30 0 3 138 3 137 -36 0 -35 0 1 240 0 240 34 0 c34 0 35 1 35
40 0 37 -2 40 -28 40 -16 0 -32 -3 -35 -7z m-1057 -285 c-3 -146 -5 -138 40
-138 l40 0 0 -64 c0 -62 -1 -64 -28 -68 -47 -7 -52 -1 -52 68 l0 64 -35 0 -35
0 0 105 0 105 36 0 35 0 -1 -72z"/>
<path d="M3304 3387 c-3 -8 -4 -41 -2 -73 3 -58 3 -59 35 -62 38 -4 46 15 41
94 -3 47 -4 49 -36 52 -21 2 -34 -2 -38 -11z"/>
<path d="M2460 3260 l0 -70 -89 0 c-109 0 -121 -4 -121 -40 0 -25 4 -29 33
-32 l32 -3 3 -67 3 -68 48 0 c65 0 81 15 89 80 7 51 9 55 37 60 l30 5 3 103 3
102 -36 0 -35 0 0 -70z"/>
<path d="M3182 3268 c2 -15 11 -24 26 -26 22 -3 23 -6 20 -100 l-3 -97 -33 -3
-33 -3 3 -102 3 -102 30 -1 c17 -1 47 -2 67 -3 34 -1 37 -4 40 -33 3 -29 7
-33 36 -36 31 -3 32 -2 32 32 0 21 -5 37 -12 38 -7 0 -17 2 -23 3 -5 2 -16 3
-22 4 -7 0 -13 14 -13 31 0 23 -5 30 -19 30 -37 0 -51 12 -51 41 0 26 3 29 35
29 l35 0 0 140 0 140 -35 0 c-28 0 -35 4 -35 20 0 15 -7 20 -26 20 -21 0 -25
-4 -22 -22z"/>
<path d="M2483 2890 c-13 -6 -23 -18 -23 -30 0 -16 6 -20 36 -20 32 0 35 2 32
27 -3 30 -14 35 -45 23z"/>
<path d="M2580 2821 l-45 -6 -5 -60 -5 -60 -50 2 c-64 3 -91 -3 -99 -23 -10
-26 12 -53 47 -56 28 -3 32 -7 35 -35 3 -28 7 -33 30 -34 15 0 75 -2 133 -4
58 -2 111 0 116 3 6 4 14 37 18 75 l7 67 -51 0 c-49 0 -51 -1 -51 -29 0 -26
-4 -29 -40 -34 -60 -8 -80 0 -80 34 0 25 4 28 38 31 34 3 37 6 40 35 2 24 9
33 25 35 17 2 22 10 22 33 0 34 -9 37 -85 26z"/>
<path d="M3382 2762 c-9 -7 -12 -42 -10 -143 l3 -134 31 -3 c28 -3 32 0 38 29
3 17 6 80 6 139 0 103 -1 108 -22 114 -29 7 -30 7 -46 -2z"/>
<path d="M1758 2633 c-3 -128 3 -153 36 -153 30 0 36 25 36 152 l0 128 -34 0
-35 0 -3 -127z"/>
<path d="M1830 2445 l0 -35 -145 0 -145 0 0 -35 0 -35 -69 0 -70 0 -3 -32 c-3
-28 -8 -34 -33 -38 -29 -5 -30 -6 -33 -71 -3 -64 -3 -65 -35 -75 l-32 -9 -3
-96 -3 -97 -34 -6 -35 -7 0 -159 c0 -147 -1 -160 -18 -160 -10 0 -24 6 -30 12
-10 10 -14 8 -18 -9 -5 -17 -15 -23 -43 -25 l-36 -3 0 -67 c0 -37 -4 -71 -10
-76 -5 -5 -30 -14 -54 -21 -88 -25 -195 -123 -239 -220 -53 -117 -52 -389 3
-504 56 -118 183 -215 325 -248 80 -18 3059 -26 3175 -8 45 7 108 25 144 42
89 41 187 140 232 232 l34 70 0 160 0 160 -42 86 c-81 165 -237 269 -405 269
l-58 0 0 65 0 65 -34 0 c-30 0 -35 3 -38 28 -2 22 -8 28 -35 30 -41 4 -42 10
-46 167 l-2 120 -32 3 -33 3 0 104 0 104 -32 3 -33 3 -3 72 -3 72 -32 3 c-27
2 -33 8 -35 31 -3 26 -5 27 -67 27 l-64 0 -3 33 -3 32 -142 3 -143 3 0 34 c0
30 -3 35 -23 35 -29 0 -47 -18 -47 -46 0 -18 -6 -23 -32 -26 -29 -3 -33 -6
-33 -33 0 -26 4 -30 32 -33 28 -3 32 -7 35 -35 3 -28 7 -32 33 -32 27 0 30 4
33 33 l3 32 145 0 144 0 0 -35 0 -35 60 0 c70 0 68 2 72 -125 l3 -80 32 -3 32
-3 3 -97 3 -97 32 -3 32 -3 3 -142 3 -142 32 -3 c29 -3 32 -7 39 -47 6 -40 9
-44 38 -47 17 -2 30 -7 29 -13 -3 -17 -43 -23 -161 -24 l-112 -1 -6 30 c-6 26
-11 30 -40 30 l-34 0 0 104 0 105 -32 3 c-29 3 -33 7 -36 36 -3 29 -6 32 -38
32 -32 0 -34 -2 -34 -35 l0 -35 -65 0 -65 0 0 35 0 35 64 0 c54 0 66 3 71 19
13 40 -3 51 -76 51 l-69 0 0 -29 c0 -28 -1 -28 -77 -35 -42 -3 -104 -6 -139
-6 l-63 0 -3 -37 c-3 -35 -6 -38 -33 -38 l-30 0 0 70 0 70 33 3 c29 3 32 6 32
37 l0 34 73 3 72 3 0 30 0 30 -72 3 -73 3 0 -35 c0 -32 -3 -35 -32 -38 -29 -3
-33 -7 -36 -35 l-3 -32 -67 -3 -67 -3 -3 -32 c-3 -30 -6 -33 -37 -33 l-34 0
-3 68 -3 67 -32 3 -32 3 -3 -68 -3 -68 -207 -3 -208 -2 0 70 0 70 -35 0 -34 0
-3 -67 -3 -68 -32 -3 c-29 -3 -32 -1 -35 30 l-3 33 -72 3 -73 3 0 -69 c0 -66
-1 -70 -25 -74 -31 -6 -35 -2 -35 39 l0 33 -109 0 c-60 0 -122 5 -136 10 -33
13 -30 42 5 50 19 4 26 13 28 37 3 29 7 33 45 38 23 4 69 5 102 3 58 -3 60 -4
63 -33 4 -34 16 -45 43 -38 14 4 19 14 19 39 0 31 -3 34 -29 34 -26 0 -30 4
-33 33 l-3 32 -102 3 -102 3 -3 -33 c-3 -28 -8 -34 -33 -38 -24 -4 -31 -11
-35 -35 -5 -29 -7 -30 -75 -35 l-70 -5 -3 -32 c-3 -30 -6 -33 -38 -33 -32 0
-34 -2 -34 -34 0 -32 -3 -35 -32 -38 l-33 -3 -3 -101 -3 -102 -29 -6 c-21 -4
-31 -13 -36 -31 l-6 -26 -137 3 c-132 3 -136 4 -139 26 -3 19 1 22 28 22 23 0
33 6 40 25 5 14 9 31 7 38 -1 7 12 13 30 15 l32 3 3 137 3 137 33 3 32 3 1 90
c1 49 2 95 3 101 0 7 15 15 31 18 l30 5 3 103 3 102 69 0 70 0 0 35 0 35 139
0 140 0 3 -32 c3 -30 6 -33 38 -33 32 0 35 3 38 33 3 26 7 32 28 32 21 0 24 5
24 35 0 31 -3 35 -25 35 -22 0 -25 -4 -25 -35 0 -33 -2 -35 -35 -35 -33 0 -35
2 -35 34 0 32 3 35 33 38 28 3 32 7 35 36 3 31 2 32 -32 32 -34 0 -36 -2 -36
-35z m1540 -70 c0 -33 -2 -35 -35 -35 -33 0 -35 2 -35 35 0 33 2 35 35 35 33
0 35 -2 35 -35z m-1620 -630 l0 -35 -65 0 -65 0 0 35 0 35 65 0 65 0 0 -35z
m-159 -45 c5 0 9 -15 9 -34 0 -36 12 -52 45 -58 16 -2 21 -13 25 -53 5 -48 6
-50 43 -59 26 -7 37 -15 37 -28 0 -15 -9 -18 -52 -19 -137 -2 -213 3 -220 14
-10 17 0 27 27 27 13 0 27 5 31 11 4 6 6 52 5 101 -1 97 3 113 26 104 8 -3 19
-6 24 -6z m2061 -102 l3 -103 33 -3 c24 -2 32 -8 32 -23 0 -18 -8 -19 -134
-19 -125 0 -134 1 -139 20 -4 16 0 20 18 20 49 0 55 8 55 76 0 56 2 64 19 64
37 0 51 12 51 41 0 25 4 29 30 29 l29 0 3 -102z m648 -252 c60 -18 143 -68
180 -108 17 -18 47 -64 67 -103 l37 -70 0 -135 c1 -127 -1 -139 -26 -193 -54
-116 -131 -185 -247 -223 l-66 -23 -1566 0 c-1512 -1 -1567 0 -1621 18 -112
38 -170 82 -226 170 -42 66 -61 141 -61 246 -1 173 55 287 182 373 95 63 0 60
1727 61 1305 1 1583 -2 1620 -13z"/>
<path d="M1053 1083 c-10 -3 -13 -45 -13 -159 l0 -154 50 0 c105 0 153 55 115
133 -13 27 -14 40 -6 56 20 37 13 67 -24 100 -35 30 -84 40 -122 24z m98 -54
c26 -26 21 -59 -13 -79 -36 -20 -62 -5 -66 39 -6 58 38 81 79 40z m19 -147
c34 -28 20 -59 -31 -67 -45 -8 -69 6 -69 39 0 46 58 62 100 28z"/>
<path d="M2994 1078 c-9 -14 -23 -267 -16 -285 2 -7 10 -13 18 -13 9 0 14 17
16 52 l3 52 49 18 c63 22 67 27 73 81 5 41 2 48 -26 76 -24 24 -41 31 -71 31
-21 0 -42 -5 -46 -12z m94 -44 c28 -19 28 -44 1 -78 -35 -44 -79 -25 -79 34 0
54 35 74 78 44z"/>
<path d="M3704 1083 c-6 -5 -14 -62 -18 -136 -8 -155 1 -181 68 -191 46 -7 98
4 104 22 2 8 -14 12 -55 12 -68 0 -83 11 -83 60 0 47 15 60 70 60 54 0 73 10
64 34 -5 13 -13 16 -32 11 -75 -19 -78 -18 -91 12 -26 64 16 99 109 91 26 -2
35 1 35 12 0 12 -17 16 -80 18 -44 1 -85 -1 -91 -5z"/>
<path d="M1816 1048 c-3 -18 -7 -88 -9 -155 -2 -97 0 -123 11 -128 21 -8 21
-8 24 32 4 50 24 52 72 8 37 -33 76 -46 76 -25 0 5 -14 22 -31 37 -86 75 -93
93 -56 133 12 14 35 42 51 62 25 34 26 38 11 44 -13 5 -29 -6 -61 -42 -50 -56
-64 -51 -64 24 0 49 -17 56 -24 10z"/>
<path d="M2205 1061 c-7 -17 -9 -15 40 -27 40 -9 40 -10 47 -64 3 -30 6 -86 7
-123 1 -50 4 -68 14 -64 8 3 12 35 12 113 1 60 2 114 3 121 1 7 23 13 54 15
28 2 53 8 55 15 5 15 -35 21 -144 25 -64 2 -84 0 -88 -11z"/>
<path d="M2607 1073 c18 -2 50 -2 70 0 21 2 7 4 -32 4 -38 0 -55 -2 -38 -4z"/>
<path d="M3410 1061 c0 -13 13 -40 28 -60 58 -73 58 -80 1 -146 -14 -16 -33
-42 -42 -57 -17 -27 -17 -28 5 -28 22 0 31 9 77 69 25 33 59 22 91 -29 13 -23
32 -40 42 -40 26 0 23 10 -22 74 -22 31 -40 63 -40 71 0 7 18 41 40 74 22 33
40 64 40 70 0 23 -39 -4 -65 -45 -32 -51 -58 -56 -79 -16 -8 15 -28 40 -45 56
-30 29 -31 29 -31 7z"/>
<path d="M3940 1065 c-9 -10 -13 -59 -14 -158 l-1 -142 73 1 c54 0 77 5 89 17
29 29 3 39 -52 21 -47 -17 -49 -16 -65 3 -14 18 -15 33 -8 94 7 66 4 166 -6
176 -2 2 -9 -3 -16 -12z"/>
<path d="M1650 1051 c-47 -25 -92 -102 -98 -166 -4 -46 -1 -54 26 -83 18 -19
40 -32 55 -32 36 0 90 25 105 49 11 18 10 21 -7 21 -10 0 -32 -7 -47 -15 -66
-34 -99 -7 -91 72 7 70 54 133 98 133 16 0 29 -4 29 -10 0 -5 7 -10 15 -10 10
0 15 10 15 30 0 27 -3 30 -33 30 -18 0 -48 -8 -67 -19z"/>
<path d="M3192 1058 c-10 -10 -5 -16 20 -28 l33 -15 -3 -85 c-4 -99 -9 -120
-27 -120 -11 0 -25 -20 -25 -36 0 -2 33 -4 74 -4 58 0 75 3 80 16 9 23 9 23
-26 32 l-33 8 0 100 c0 98 0 99 25 102 34 5 49 20 30 32 -22 14 -134 12 -148
-2z"/>
<path d="M1402 1033 c-10 -16 -29 -48 -43 -73 -13 -25 -29 -52 -35 -60 -37
-46 -57 -156 -22 -118 7 8 21 27 30 43 30 53 123 44 130 -12 2 -18 10 -29 22
-31 16 -3 18 0 12 19 -4 13 -17 71 -28 129 -11 58 -22 111 -24 118 -6 20 -21
14 -42 -15z m26 -106 c4 -20 -25 -34 -39 -20 -14 14 1 45 20 41 9 -2 17 -11
19 -21z"/>
<path d="M2533 1041 c-24 -20 -30 -41 -13 -41 6 0 10 6 10 14 0 7 9 16 20 19
11 3 20 10 20 16 0 16 -12 13 -37 -8z"/>
<path d="M2720 1052 c0 -10 38 -42 50 -42 6 0 10 -9 10 -20 0 -11 5 -20 10
-20 18 0 11 19 -21 55 -30 33 -49 44 -49 27z"/>
<path d="M4192 1027 c-59 -61 -29 -117 62 -117 32 0 76 -29 76 -50 0 -12 -35
-39 -72 -54 -34 -15 -38 -14 -74 10 -36 25 -38 25 -51 8 -12 -16 -11 -19 7
-26 11 -4 20 -11 20 -16 0 -15 78 -23 118 -12 58 15 73 31 79 82 5 40 2 47
-22 66 -17 14 -42 22 -64 22 -40 0 -61 14 -61 41 0 27 40 49 88 49 66 0 49 24
-19 28 -50 3 -57 0 -87 -31z"/>
<path d="M2487 993 c-4 -3 -7 -39 -7 -80 0 -56 4 -75 15 -79 8 -4 15 -11 15
-17 0 -15 49 -57 67 -57 7 0 13 5 13 10 0 6 -5 10 -10 10 -6 0 -27 16 -46 35
-34 35 -35 38 -33 105 2 69 -1 86 -14 73z"/>
<path d="M2695 990 c-3 -5 1 -10 10 -10 9 0 13 5 10 10 -3 6 -8 10 -10 10 -2
0 -7 -4 -10 -10z"/>
<path d="M2720 961 c0 -5 5 -13 10 -16 6 -3 10 -2 10 4 0 5 -4 13 -10 16 -5 3
-10 2 -10 -4z"/>
<path d="M2720 864 c0 -8 5 -12 10 -9 6 3 10 10 10 16 0 5 -4 9 -10 9 -5 0
-10 -7 -10 -16z"/>
<path d="M2780 845 c0 -16 -6 -25 -15 -25 -8 0 -15 -6 -15 -14 0 -8 -10 -16
-22 -18 -24 -3 -28 -20 -8 -26 16 -6 80 66 80 89 0 10 -4 19 -10 19 -5 0 -10
-11 -10 -25z"/>
<path d="M2678 833 c6 -2 18 -2 25 0 6 3 1 5 -13 5 -14 0 -19 -2 -12 -5z"/>
<path d="M2600 750 c0 -5 20 -10 44 -10 25 0 48 5 51 10 4 6 -13 10 -44 10
-28 0 -51 -4 -51 -10z"/>
<path d="M2707 2454 c-8 -8 1 -24 12 -24 4 0 8 7 8 15 0 16 -9 20 -20 9z"/>
<path d="M1900 2235 l0 -36 103 3 102 3 0 30 0 30 -102 3 -103 3 0 -36z"/>
<path d="M2247 2264 c-4 -4 -7 -20 -7 -36 0 -28 0 -28 -65 -28 l-65 0 0 -35 0
-34 68 -3 67 -3 3 -32 c3 -28 7 -32 35 -35 28 -3 32 -7 35 -36 3 -31 6 -33 35
-30 l32 3 3 68 3 67 -71 0 -70 0 0 35 0 34 72 3 73 3 0 30 0 30 -70 3 c-39 1
-74 0 -78 -4z"/>
<path d="M2812 2238 l3 -33 68 -3 67 -3 0 -34 0 -35 -70 0 -70 0 0 36 c0 33
-2 35 -27 32 -22 -2 -29 -9 -31 -31 -3 -23 2 -29 27 -38 30 -11 31 -13 31 -74
0 -58 -2 -64 -22 -67 -18 -2 -23 -10 -23 -33 0 -23 4 -30 20 -30 15 0 21 8 23
33 3 30 5 32 44 32 31 0 41 4 45 19 3 11 15 21 27 23 18 3 21 11 24 51 l3 47
70 0 c67 0 69 1 69 25 0 14 -1 28 -2 33 -2 4 40 9 92 12 l95 5 3 33 3 32 -90
0 -90 0 -3 -32 -3 -33 -72 -3 -73 -3 0 36 0 35 -71 0 -70 0 3 -32z"/>
<path d="M2400 2165 c0 -32 2 -35 30 -35 28 0 30 3 30 35 0 32 -2 35 -30 35
-28 0 -30 -3 -30 -35z"/>
<path d="M3577 2174 c-8 -8 1 -24 14 -24 5 0 9 7 9 15 0 15 -12 20 -23 9z"/>
<path d="M1630 2086 c0 -16 27 -29 41 -20 19 11 9 34 -16 34 -15 0 -25 -6 -25
-14z"/>
<path d="M3520 2071 c0 -19 25 -35 40 -26 4 3 6 14 3 25 -7 26 -43 27 -43 1z"/>
<path d="M1706 2008 c-10 -39 -7 -66 10 -72 30 -11 34 -6 34 44 0 42 -3 50
-19 50 -11 0 -21 -9 -25 -22z"/>
<path d="M3450 1975 c0 -38 3 -45 20 -45 11 0 20 3 20 8 1 4 3 24 6 45 5 35 4
37 -20 37 -24 0 -26 -3 -26 -45z"/>
<path d="M2410 1945 c0 -8 9 -15 20 -15 11 0 20 7 20 15 0 8 -9 15 -20 15 -11
0 -20 -7 -20 -15z"/>
<path d="M3398 1903 c7 -3 16 -2 19 1 4 3 -2 6 -13 5 -11 0 -14 -3 -6 -6z"/>
</g>
</svg>
